# xmcd CD database file
#
# Track frame offsets:
#	150
#	15957
#	29372
#	50620
#	66737
#	85127
#	99915
#	113847
#	131275
#	145940
#	161050
#	175235
#	192132
#	208327
#	225290
#	242100
#	255880
#	274752
#	289102
#	300762
#
# Disc length: 4221 seconds
#
# Revision: 0
# Processed by: cddbd v1.5.1PL0 Copyright (c) Steve Scherf et al.
# Submitted via: CDex 1.50
#
DISCID=0a107b14
DTITLE=越路吹雪 - BIG ARTIST BEST COLLECTION 越路吹雪
DYEAR=1989
DGENRE=Chanson
TTITLE0=サン・トワ・マミー
TTITLE1=ろくでなし
TTITLE2=ミロール
TTITLE3=あなたに首ったけ
TTITLE4=メランコリー
TTITLE5=バラ色の人生
TTITLE6=雪が降る
TTITLE7=明日は月の上で
TTITLE8=夢の中に君がいる
TTITLE9=ラストダンスは私に
TTITLE10=誰もいない海
TTITLE11=ワン・レイニー・ナイト・イン・トーキョー
TTITLE12=セ・シ・ボン
TTITLE13=そして今は
TTITLE14=私の心はヴァイオリン
TTITLE15=家へ帰るのが怖い
TTITLE16=枯葉
TTITLE17=別離
TTITLE18=チャンスが欲しいの
TTITLE19=愛の讃歌
EXTD=YEAR: 1989
EXTT0=
EXTT1=
EXTT2=
EXTT3=
EXTT4=
EXTT5=
EXTT6=
EXTT7=
EXTT8=
EXTT9=
EXTT10=
EXTT11=
EXTT12=
EXTT13=
EXTT14=
EXTT15=
EXTT16=
EXTT17=
EXTT18=
EXTT19=
PLAYORDER=
